<svg xmlns="http://www.w3.org/2000/svg" viewBox="-26 0 288.59459556638103 80.99999999999999" height="81" width="288.595" style="background:transparent">
  <defs/>
  <g transform="matrix(1.2162162005422412,0,0,1.2162162005422412,48.589189392950864,44.33513461789396)" fill="#ffffff">
    <path d="M1.16 20 l0 -14.3 l10.68 0 l0 4.06 l-5.38 0 l0 1.22 l4.24 0 l0 3.68 l-4.24 0 l0 1.28 l5.68 0 l0 4.06 l-10.98 0 z M33.58 20 l0 -14.3 l6.28 0 c4.26 0 6.24 1.72 6.24 4.82 l0 0.08 c0 1.88 -0.82 3 -2.1 3.7 l2.94 5.7 l-5.54 0 l-2.22 -4.54 l-0.3 0 l0 4.54 l-5.3 0 z M38.88 12.12 l0.6 0 c1.04 0 1.5 -0.42 1.5 -1.26 l0 -0.08 c0 -0.78 -0.46 -1.12 -1.46 -1.12 l-0.64 0 l0 2.46 z M68.02 20 l0 -14.3 l5.38 0 l0 14.3 l-5.38 0 z M101.12 20.28 c-4.08 0 -6.48 -1.48 -6.52 -4.92 l5.02 0 c0.04 0.68 0.42 1.22 1.5 1.22 c0.84 0 1.1 -0.32 1.1 -0.76 c0 -0.5 -0.44 -0.74 -1.62 -0.88 c-4.26 -0.46 -5.72 -1.64 -5.72 -4.68 c0 -2.78 2.22 -4.78 6.02 -4.78 c3.74 0 5.76 1.46 6 4.74 l-4.92 0 c-0.04 -0.62 -0.42 -1.04 -1.1 -1.04 c-0.64 0 -0.96 0.26 -0.96 0.68 c0 0.48 0.38 0.74 1.6 0.86 c3.54 0.34 5.8 1.2 5.8 4.52 c0 2.72 -2.08 5.04 -6.2 5.04 z M134.1 20.28 c-4.08 0 -6.48 -1.48 -6.52 -4.92 l5.02 0 c0.04 0.68 0.42 1.22 1.5 1.22 c0.84 0 1.1 -0.32 1.1 -0.76 c0 -0.5 -0.44 -0.74 -1.62 -0.88 c-4.26 -0.46 -5.72 -1.64 -5.72 -4.68 c0 -2.78 2.22 -4.78 6.02 -4.78 c3.74 0 5.76 1.46 6 4.74 l-4.92 0 c-0.04 -0.62 -0.42 -1.04 -1.1 -1.04 c-0.64 0 -0.96 0.26 -0.96 0.68 c0 0.48 0.38 0.74 1.6 0.86 c3.54 0.34 5.8 1.2 5.8 4.52 c0 2.72 -2.08 5.04 -6.2 5.04 z M160.32 20 l4.4 -14.3 l6.86 0 l4.38 14.3 l-5.68 0 l-0.48 -1.9 l-4.04 0 l-0.48 1.9 l-4.96 0 z M167.8 9.98 l-1.16 4.56 l2.28 0 z"/>
  </g>
  <g transform="matrix(1,0,0,1,0,41)" fill="#ffffff">
    <path d=""/>
  </g>
  <g transform="matrix(5.784100418410041,0,0,5.784100418410041,-28.824265713871274,-34.68201112627484)" fill="#ffffff">
    <path d="M6.416016 20 q-0.419922 0 -0.761719 -0.229492 t-0.517578 -0.629883 l-3.183594 -7.871094 q-0.107422 -0.283203 -0.107422 -0.546875 t0.107422 -0.517578 q0.214844 -0.507812 0.761719 -0.732422 q0.273438 -0.107422 0.527344 -0.107422 q0.263672 0 0.517578 0.107422 q0.507813 0.214844 0.751953 0.751953 l1.904297 4.726563 l3.28125 -8.085937 q0.380859 -0.869141 1.269531 -0.869141 q0.253906 0 0.527344 0.097656 q0.849609 0.380859 0.849609 1.279297 q0 0.253906 -0.097656 0.517578 l-4.541016 11.25 q-0.175781 0.400391 -0.517578 0.629883 t-0.771484 0.229492 z M1.865234 8.75 q-0.566406 0 -0.97168 -0.400391 t-0.405273 -0.976562 q0 -0.566406 0.405273 -0.97168 t0.97168 -0.405273 q0.576172 0 0.976563 0.405273 t0.400391 0.97168 q0 0.576172 -0.400391 0.976563 t-0.976562 0.400391 z"/>
  </g>
</svg>
