<svg xmlns="http://www.w3.org/2000/svg" viewBox="0 0 32 32"><rect width="32" height="32" rx="4" fill="#000"/><g transform="translate(5,3) scale(0.68)" fill="#fff"><path d="M6.416016 20 q-0.419922 0 -0.761719 -0.229492 t-0.517578 -0.629883 l-3.183594 -7.871094 q-0.107422 -0.283203 -0.107422 -0.546875 t0.107422 -0.517578 q0.214844 -0.507812 0.761719 -0.732422 q0.273438 -0.107422 0.527344 -0.107422 q0.263672 0 0.517578 0.107422 q0.507813 0.214844 0.751953 0.751953 l1.904297 4.726563 l3.28125 -8.085937 q0.380859 -0.869141 1.269531 -0.869141 q0.253906 0 0.527344 0.097656 q0.849609 0.380859 0.849609 1.279297 q0 0.253906 -0.097656 0.517578 l-4.541016 11.25 q-0.175781 0.400391 -0.517578 0.629883 t-0.771484 0.229492 z M1.865234 8.75 q-0.566406 0 -0.97168 -0.400391 t-0.405273 -0.976562 q0 -0.566406 0.405273 -0.97168 t0.97168 -0.405273 q0.576172 0 0.976563 0.405273 t0.400391 0.97168 q0 0.576172 -0.400391 0.976563 t-0.976562 0.400391 z"/></g></svg>
